<svg xmlns="http://www.w3.org/2000/svg" viewBox="0 0 181.33 181.22"><defs><style>.cls-1{fill:#5b97fd;}.cls-2{fill:#039;}.cls-3{fill:#fc0;}.cls-4{fill:#b3cfff;}.cls-5{fill:#ffde59;}</style></defs><g id="Layer_2" data-name="Layer 2"><g id="Layer_1-2" data-name="Layer 1"><polygon class="cls-1" points="134.91 95.85 134.91 181.22 92.23 138.54 134.91 95.85"/><polygon class="cls-2" points="45.58 95.85 45.58 181.22 88.26 138.54 45.58 95.85"/><polygon class="cls-2" points="47.56 0 47.56 84.67 89.23 42.34 47.56 0"/><polygon class="cls-3" points="0 47.74 0 132.4 41.67 90.08 0 47.74"/><polygon class="cls-4" points="90.62 47.51 90.62 133.63 47.56 90.58 90.62 47.51"/><polygon class="cls-3" points="134.07 0 134.07 84.67 92.23 42.34 134.07 0"/><polygon class="cls-2" points="181.33 48.24 181.33 132.9 139.5 90.58 181.33 48.24"/><rect class="cls-5" x="79.97" y="79.43" width="21.79" height="21.79" transform="translate(90.48 -37.8) rotate(45)"/></g></g></svg>