<svg xmlns="http://www.w3.org/2000/svg" width="293.18" height="254.43" viewBox="0 0 293.18 254.43">
  <defs>
    <style>
      .cls-1 {
        fill: #5b97fd;
      }

      .cls-2 {
        fill: #039;
      }

      .cls-3 {
        fill: #fc0;
      }

      .cls-4 {
        fill: #b3cfff;
      }

      .cls-5 {
        fill: #ffde59;
      }

      .cls-6, .cls-7, .cls-8 {
        fill: none;
        stroke-miterlimit: 10;
        stroke-width: 3px;
      }

      .cls-6 {
        stroke: #ffde59;
      }

      .cls-7 {
        stroke: #b3cfff;
      }

      .cls-8 {
        stroke: #000;
      }

      .cls-9 {
        fill: #fff;
        opacity: 0.6;
      }
    </style>
  </defs>
  <g id="Layer_2" data-name="Layer 2">
    <g id="Layer_1-2" data-name="Layer 1">
      <g>
        <polygon class="cls-1" points="190.31 147.51 190.31 232.88 147.63 190.2 190.31 147.51"/>
        <polygon class="cls-2" points="100.98 147.51 100.98 232.88 143.66 190.2 100.98 147.51"/>
        <polygon class="cls-2" points="102.96 51.66 102.96 136.33 144.63 94 102.96 51.66"/>
        <polygon class="cls-3" points="55.4 99.4 55.4 184.06 97.06 141.74 55.4 99.4"/>
        <polygon class="cls-4" points="146.01 99.17 146.01 185.29 102.96 142.24 146.01 99.17"/>
        <rect class="cls-5" x="141.1" y="33.21" width="10.56" height="10.29" transform="translate(70 -92.27) rotate(45)"/>
        <g>
          <ellipse class="cls-2" cx="291.02" cy="125.06" rx="2.16" ry="2.11"/>
          <ellipse class="cls-2" cx="284.79" cy="119.01" rx="2.16" ry="2.11"/>
          <ellipse class="cls-2" cx="278.04" cy="112.45" rx="2.16" ry="2.11"/>
          <ellipse class="cls-2" cx="271.97" cy="106.55" rx="2.16" ry="2.11"/>
          <ellipse class="cls-2" cx="265.67" cy="100.44" rx="2.16" ry="2.11"/>
          <ellipse class="cls-2" cx="259.39" cy="94.34" rx="2.16" ry="2.11"/>
          <ellipse class="cls-2" cx="253.01" cy="88.15" rx="2.16" ry="2.11"/>
          <ellipse class="cls-2" cx="246.73" cy="82.05" rx="2.16" ry="2.11"/>
          <ellipse class="cls-2" cx="240.4" cy="75.9" rx="2.16" ry="2.11"/>
          <ellipse class="cls-2" cx="233.9" cy="69.59" rx="2.16" ry="2.11"/>
          <ellipse class="cls-2" cx="227.64" cy="63.52" rx="2.16" ry="2.11"/>
          <ellipse class="cls-2" cx="221.22" cy="57.28" rx="2.16" ry="2.11"/>
          <ellipse class="cls-2" cx="214.79" cy="51.04" rx="2.16" ry="2.11"/>
          <ellipse class="cls-2" cx="208.39" cy="44.82" rx="2.16" ry="2.11"/>
          <ellipse class="cls-2" cx="202.23" cy="38.84" rx="2.16" ry="2.11"/>
          <ellipse class="cls-2" cx="195.99" cy="32.79" rx="2.16" ry="2.11"/>
          <ellipse class="cls-2" cx="189.7" cy="26.68" rx="2.16" ry="2.11"/>
          <ellipse class="cls-2" cx="183.18" cy="20.34" rx="2.16" ry="2.11"/>
          <ellipse class="cls-2" cx="176.86" cy="14.21" rx="2.16" ry="2.11"/>
          <ellipse class="cls-2" cx="170.76" cy="8.29" rx="2.16" ry="2.11"/>
          <ellipse class="cls-2" cx="164.53" cy="2.23" rx="2.16" ry="2.11"/>
        </g>
        <g>
          <ellipse class="cls-2" cx="2.16" cy="124.93" rx="2.16" ry="2.11"/>
          <ellipse class="cls-2" cx="8.39" cy="118.88" rx="2.16" ry="2.11"/>
          <ellipse class="cls-2" cx="15.14" cy="112.33" rx="2.16" ry="2.11"/>
          <ellipse class="cls-2" cx="21.22" cy="106.43" rx="2.16" ry="2.11"/>
          <ellipse class="cls-2" cx="27.51" cy="100.32" rx="2.16" ry="2.11"/>
          <ellipse class="cls-2" cx="33.79" cy="94.22" rx="2.16" ry="2.11"/>
          <ellipse class="cls-2" cx="40.17" cy="88.02" rx="2.16" ry="2.11"/>
          <ellipse class="cls-2" cx="46.45" cy="81.92" rx="2.16" ry="2.11"/>
          <ellipse class="cls-2" cx="52.78" cy="75.78" rx="2.16" ry="2.11"/>
          <ellipse class="cls-2" cx="59.28" cy="69.47" rx="2.16" ry="2.11"/>
          <ellipse class="cls-2" cx="65.54" cy="63.39" rx="2.16" ry="2.11"/>
          <ellipse class="cls-2" cx="71.97" cy="57.15" rx="2.16" ry="2.11"/>
          <ellipse class="cls-2" cx="78.39" cy="50.91" rx="2.16" ry="2.11"/>
          <ellipse class="cls-2" cx="84.8" cy="44.7" rx="2.16" ry="2.11"/>
          <ellipse class="cls-2" cx="90.96" cy="38.71" rx="2.16" ry="2.11"/>
          <ellipse class="cls-2" cx="97.19" cy="32.66" rx="2.16" ry="2.11"/>
          <ellipse class="cls-2" cx="103.48" cy="26.55" rx="2.16" ry="2.11"/>
          <ellipse class="cls-2" cx="110.01" cy="20.22" rx="2.16" ry="2.11"/>
          <ellipse class="cls-2" cx="116.33" cy="14.08" rx="2.16" ry="2.11"/>
          <ellipse class="cls-2" cx="122.42" cy="8.16" rx="2.16" ry="2.11"/>
          <ellipse class="cls-2" cx="128.66" cy="2.11" rx="2.16" ry="2.11"/>
        </g>
        <polygon class="cls-3" points="189.47 51.66 189.47 136.33 147.63 94 189.47 51.66"/>
        <polygon class="cls-2" points="236.73 99.9 236.73 184.56 194.89 142.24 236.73 99.9"/>
        <rect class="cls-6" x="98.3" y="93.98" width="95.41" height="95.5" transform="translate(142.98 -61.73) rotate(45)"/>
        <rect class="cls-7" x="179.14" y="109.54" width="79.01" height="79.08" transform="translate(169.46 -110.94) rotate(45)"/>
        <rect class="cls-7" x="34.6" y="109.54" width="79.01" height="79.08" transform="translate(127.12 -8.73) rotate(45)"/>
        <rect class="cls-5" x="135.37" y="131.09" width="21.79" height="21.79" transform="translate(143.23 -61.84) rotate(45)"/>
        <rect class="cls-8" x="173.43" y="96.77" width="90.43" height="90.43" transform="translate(164.44 -113.02) rotate(45)"/>
        <rect class="cls-8" x="28.89" y="96.77" width="90.43" height="90.43" transform="translate(122.1 -10.82) rotate(45)"/>
        <polyline class="cls-8" points="184.18 44.25 211.05 70.42 146.26 133.54 81.47 70.42 108.34 44.25"/>
        <g>
          <rect class="cls-9" x="94.38" y="122.93" width="106.92" height="156.07" transform="translate(348.81 53.13) rotate(90)"/>
          <g>
            <path d="M72.92,239.18h6.36c.11,2.88,2.72,4.31,5.54,4.31s5.55-1.73,5.55-4.46c0-2.92-3-4.71-5.55-4.81a15.79,15.79,0,0,1-5.7-1.14c-4-1.68-6.2-4.75-6.2-8.87,0-6.59,5.76-10.61,11.9-10.61,6.58,0,11.64,4.07,11.75,10H90.26c-.11-2.88-2.55-4.17-5.44-4.17s-5.54,1.59-5.54,4.81c0,2.88,2.72,4.41,5.54,4.41a15.61,15.61,0,0,1,5.66,1.14A9.71,9.71,0,0,1,96.67,239c0,6.65-5.7,10.26-11.85,10.26C78.25,249.14,73,245.68,72.92,239.18Z"/>
            <path d="M99.52,226.74c0-7.09,6.36-12.88,14.13-12.88s14.13,5.79,14.13,12.88-6.36,12.89-14.13,12.89S99.52,233.83,99.52,226.74Zm1.41,22.31V243.3H126v5.75Zm4.89-22.31c0,4,3.48,7.14,7.83,7.14s7.83-3.17,7.83-7.14-3.48-7.14-7.83-7.14S105.82,222.78,105.82,226.74Z"/>
            <path d="M146.48,243.79c-20.32,0-19.78-26.47,0-26.47v-4.21h6.36v4.21c20.17,0,20.5,26.47,0,26.47v4.51h-6.36Zm0-21.21c-12.44,0-11.36,16.06,0,16.06Zm6.36,16.06c11.2,0,12.23-16.06,0-16.06Z"/>
            <path d="M184.7,242.92h4.45v5.3H173.88v-5.3h4.46V218.83H174.1v-5.31h14.84v5.31H184.7Z"/>
            <path d="M202.56,243.54l-1.64,4h-6.84l15.16-35.69,15.22,35.69h-6.85l-1.68-4Zm11.3-5-4.62-12-4.62,12Z"/>
          </g>
          <path d="M123.07,198.19v-29l-13.9,29h-7.6l-14.8-29.58v29.58H78.68V151h8.23l18.39,36.72L122.93,151h8.23v47.23Z"/>
          <path d="M147.48,170.63H167.6v7.82H147.48v11.79h24.2v7.88H139.39V151h32.29v7.88h-24.2Z"/>
          <path d="M179.41,183.1V151h8.09V183.1c.41,5.45,4.91,7.88,10,7.88s10.1-2.63,10.1-7.88V151h8.09V183.1c0,10-7.88,15.76-18.19,15.76C187.57,198.86,179.41,192.8,179.41,183.1Z"/>
        </g>
        <polyline class="cls-8" points="218.62 206.64 216.36 206.64 76.62 206.64 74.11 206.64"/>
        <polyline class="cls-8" points="234.08 190.65 233.83 190.91 217.95 206.78 217.67 207.07"/>
        <polyline class="cls-8" points="75.15 207.07 74.87 206.78 58.99 190.91 58.74 190.65"/>
      </g>
    </g>
  </g>
</svg>
